<svg id="Layer_1" data-name="Layer 1" xmlns="http://www.w3.org/2000/svg" viewBox="0 0 70.44 73.26"><defs><style>.cls-1{stroke:#000;stroke-miterlimit:10;stroke-width:3px;}</style></defs><g id="Group_134" data-name="Group 134"><path id="Path_1053" data-name="Path 1053" class="cls-1" d="M960.42,472.43a32.93,32.93,0,0,1,23.84,10.29,36.17,36.17,0,0,1,0,49.68,32.76,32.76,0,0,1-46.32,1.36c-.46-.44-.92-.89-1.36-1.36a36.17,36.17,0,0,1,0-49.68A32.93,32.93,0,0,1,960.42,472.43Zm-14.75,38.41a1.88,1.88,0,0,1-.13-2.59,1.71,1.71,0,0,1,2.41-.2l.08.07,7.37,7,17.31-18.89a1.71,1.71,0,0,1,2.42-.14l.08.07a1.9,1.9,0,0,1,.06,2.6l-18.5,20.19h0a1.72,1.72,0,0,1-2.41.14l0,0-8.65-8.17Zm36.1-25.52a29.34,29.34,0,0,0-41.47-1.22c-.42.4-.82.8-1.22,1.22a32.39,32.39,0,0,0,0,44.48A29.35,29.35,0,0,0,980.55,531c.41-.4.82-.81,1.22-1.22a32.41,32.41,0,0,0,0-44.48Z" transform="translate(-925.2 -470.93)"/></g></svg>