<svg id="Layer_1" data-name="Layer 1" xmlns="http://www.w3.org/2000/svg" viewBox="0 0 71.54 69.88"><defs><style>.cls-1{fill-rule:evenodd;}</style></defs><path id="Path_1056" data-name="Path 1056" class="cls-1" d="M1133.61,512.06c19.76,0,35.77,15.64,35.77,34.94s-16,34.94-35.77,34.94-35.77-15.64-35.77-34.94S1113.86,512.06,1133.61,512.06Zm-5,17.36H1133a1.44,1.44,0,0,1,1.45,1.42V547.3h15.38a1.43,1.43,0,0,1,1.45,1.42V553a1.44,1.44,0,0,1-1.45,1.42h-22.67V530.84a1.44,1.44,0,0,1,1.46-1.42Zm5-9.43c15.27,0,27.65,12.09,27.65,27s-12.38,27-27.65,27S1106,561.92,1106,547s12.37-27,27.64-27Z" transform="translate(-1097.84 -512.06)"/></svg>