<svg id="Layer_1" data-name="Layer 1" xmlns="http://www.w3.org/2000/svg" viewBox="0 0 54.44 65.69"><defs><style>.cls-1{fill-rule:evenodd;}</style></defs><path id="Path_1054" data-name="Path 1054" class="cls-1" d="M1005.52,550.68a1.72,1.72,0,0,1,0-3.36h17.77a1.72,1.72,0,0,1,0,3.36Zm3.64,27.8a1.69,1.69,0,0,1,0,3.37H989.07a3.67,3.67,0,0,1-2.64-1.15,4,4,0,0,1-1.1-2.77V520.07a4,4,0,0,1,1.1-2.77,3.67,3.67,0,0,1,2.64-1.15h45.86a3.66,3.66,0,0,1,2.64,1.15,4,4,0,0,1,1.1,2.77v26.81a1.61,1.61,0,0,1-3.21.16v-27a.51.51,0,0,0-.16-.38.46.46,0,0,0-.36-.17H989.07a.51.51,0,0,0-.37.16.59.59,0,0,0-.16.39v57.85a.57.57,0,0,0,.16.39.51.51,0,0,0,.37.16h20.09Zm26.46-22.58a1.22,1.22,0,0,0-.91-.38,1.17,1.17,0,0,0-.89.41l-2,2.18,5.59,5.66,2-2.2a1.42,1.42,0,0,0,0-1.88l-3.78-3.8Zm-10.44,21.2-2.21.76-2.2.77c-1.74.6-2.71.93-2.92,1s-.09-.8.36-2.57l1.38-5.59h0L1030.06,560l5.58,5.64Zm-19.66-14.46a1.75,1.75,0,0,1,0-3.41h8.76a1.75,1.75,0,0,1,0,3.41Zm0-23.89a1.72,1.72,0,0,1,0-3.36h17.77a1.72,1.72,0,0,1,0,3.36Zm-7.72,19.88a2,2,0,1,1-1.89,2.08.28.28,0,0,1,0-.09,2,2,0,0,1,1.9-2Zm0-11.77a2,2,0,1,1-1.89,2.08.28.28,0,0,1,0-.09,2,2,0,0,1,1.9-2Zm0-11.77a2,2,0,1,1-1.89,2.08.28.28,0,0,1,0-.09,2,2,0,0,1,1.9-2Z" transform="translate(-985.33 -516.15)"/></svg>